<svg width="702" height="675" viewBox="0 0 702 675" fill="none" xmlns="http://www.w3.org/2000/svg">
<path d="M39.4995 108.5C32.9139 57.213 82.2007 168.854 316.5 61.5001C550.798 -45.8543 752.126 238.985 582 327C228.509 426.37 76.9883 529.419 363.999 638.499" stroke="#4B006E" stroke-width="4" stroke-dasharray="8 8"/>
<circle cx="317" cy="61" r="5" fill="#4B006E"/>
<circle cx="583" cy="327" r="6" fill="#4B006E"/>
<circle cx="362" cy="636" r="10" fill="#4B006E"/>
<path d="M317 55C316.417 55 315.917 54.8333 315.5 54.5C315.083 54.1667 314.771 53.7292 314.563 53.1875C313.771 50.8542 312.771 48.6667 311.562 46.625C310.396 44.5833 308.75 42.1875 306.625 39.4375C304.5 36.6875 302.771 34.0625 301.438 31.5625C300.146 29.0625 299.5 26.0417 299.5 22.5C299.5 17.625 301.187 13.5 304.562 10.125C307.979 6.70833 312.125 5 317 5C321.875 5 326 6.70833 329.375 10.125C332.792 13.5 334.5 17.625 334.5 22.5C334.5 26.2917 333.771 29.4583 332.313 32C330.896 34.5 329.25 36.9792 327.375 39.4375C325.125 42.4375 323.417 44.9375 322.25 46.9375C321.125 48.8958 320.188 50.9792 319.438 53.1875C319.229 53.7708 318.896 54.2292 318.438 54.5625C318.021 54.8542 317.542 55 317 55ZM317 28.75C318.75 28.75 320.229 28.1458 321.438 26.9375C322.646 25.7292 323.25 24.25 323.25 22.5C323.25 20.75 322.646 19.2708 321.438 18.0625C320.229 16.8542 318.75 16.25 317 16.25C315.25 16.25 313.771 16.8542 312.563 18.0625C311.354 19.2708 310.75 20.75 310.75 22.5C310.75 24.25 311.354 25.7292 312.563 26.9375C313.771 28.1458 315.25 28.75 317 28.75Z" fill="#4B006E"/>
<path d="M583 319.333C582.222 319.333 581.556 319.111 581 318.667C580.444 318.222 580.028 317.639 579.75 316.917C578.694 313.806 577.361 310.889 575.75 308.167C574.194 305.444 572 302.25 569.167 298.583C566.333 294.917 564.028 291.417 562.25 288.083C560.528 284.75 559.667 280.722 559.667 276C559.667 269.5 561.917 264 566.417 259.5C570.972 254.944 576.5 252.667 583 252.667C589.5 252.667 595 254.944 599.5 259.5C604.056 264 606.333 269.5 606.333 276C606.333 281.056 605.361 285.278 603.417 288.667C601.528 292 599.333 295.306 596.833 298.583C593.833 302.583 591.556 305.917 590 308.583C588.5 311.194 587.25 313.972 586.25 316.917C585.972 317.694 585.528 318.306 584.917 318.75C584.361 319.139 583.722 319.333 583 319.333ZM583 284.333C585.333 284.333 587.306 283.528 588.917 281.917C590.528 280.306 591.333 278.333 591.333 276C591.333 273.667 590.528 271.694 588.917 270.083C587.306 268.472 585.333 267.667 583 267.667C580.667 267.667 578.694 268.472 577.083 270.083C575.472 271.694 574.667 273.667 574.667 276C574.667 278.333 575.472 280.306 577.083 281.917C578.694 283.528 580.667 284.333 583 284.333Z" fill="#4B006E"/>
<path d="M362 623C360.833 623 359.833 622.667 359 622C358.167 621.333 357.542 620.458 357.125 619.375C355.542 614.708 353.542 610.333 351.125 606.25C348.792 602.167 345.5 597.375 341.25 591.875C337 586.375 333.542 581.125 330.875 576.125C328.292 571.125 327 565.083 327 558C327 548.25 330.375 540 337.125 533.25C343.958 526.417 352.25 523 362 523C371.75 523 380 526.417 386.75 533.25C393.583 540 397 548.25 397 558C397 565.583 395.542 571.917 392.625 577C389.792 582 386.5 586.958 382.75 591.875C378.25 597.875 374.833 602.875 372.5 606.875C370.25 610.792 368.375 614.958 366.875 619.375C366.458 620.542 365.792 621.458 364.875 622.125C364.042 622.708 363.083 623 362 623ZM362 570.5C365.5 570.5 368.458 569.292 370.875 566.875C373.292 564.458 374.5 561.5 374.5 558C374.5 554.5 373.292 551.542 370.875 549.125C368.458 546.708 365.5 545.5 362 545.5C358.5 545.5 355.542 546.708 353.125 549.125C350.708 551.542 349.5 554.5 349.5 558C349.5 561.5 350.708 564.458 353.125 566.875C355.542 569.292 358.5 570.5 362 570.5Z" fill="#4B006E"/>
<g clip-path="url(#clip0_33_16)">
<path fill-rule="evenodd" clip-rule="evenodd" d="M25 84C11.1929 84 0 95.1929 0 109C0 122.807 11.1929 134 25 134C38.8071 134 50 122.807 50 109C50 95.1929 38.8071 84 25 84ZM34.3554 99.6447C34.8336 100.123 35.0006 100.83 34.7868 101.472L28.2012 121.229C27.9807 121.89 27.3952 122.363 26.702 122.439C26.0088 122.515 25.3347 122.181 24.9759 121.583L20.2664 113.734L12.4172 109.024C11.8192 108.665 11.4848 107.991 11.5609 107.298C11.637 106.605 12.1097 106.019 12.7713 105.799L32.528 99.2133C33.1697 98.9994 33.8771 99.1664 34.3554 99.6447Z" fill="#4B006E"/>
</g>
<defs>
<clipPath id="clip0_33_16">
<rect width="50" height="50" fill="white" transform="translate(0 84)"/>
</clipPath>
</defs>
</svg>
